<?xml version="1.0" encoding="UTF-8"?>
<svg id="Layer_2" xmlns="http://www.w3.org/2000/svg" xmlns:xlink="http://www.w3.org/1999/xlink" viewBox="0 0 199.5 199.5">
  <defs>
    <style>
      .cls-1 {
        fill: none;
      }

      .cls-2 {
        fill: #0E2E22;
      }

      .cls-3 {
        clip-path: url(#clippath);
      }
    </style>
    <clipPath id="clippath">
      <rect class="cls-1" x="0" y="0" width="199.5" height="199.5" rx="99.7" ry="99.7"/>
    </clipPath>
  </defs>
  <g id="Layer_1-2" data-name="Layer_1">
    <g class="cls-3">
      <g id="SvgjsG1007-2">
        <path class="cls-2" d="M175.9,91c0-24-19.5-43.4-43.5-43.4-13.1,0-24.8,5.9-32.8,15.1-8-9.2-19.7-15-32.8-15.1-24,0-43.5,19.4-43.5,43.4s2,21.6,5.2,31.9c-1.6,8.5-5.1,17-11.9,22.1-15.1,11.3-26.2,11-26.2,11,0,0,23,13.1,50.3-5.4,22.5,40.2,58.9,68.5,58.9,68.5,0,0,19.7-15.3,39.1-39.4,36,13.7,70.4-2.3,70.4-2.3,0,0-32.1-5.4-55.3-18.7,12.5-19.8,22.1-43.1,22.1-67.6v-.1ZM178.4,176.1c4.1.6,14.2,1.9,14.2,1.9,0,0-11.1.9-22.1-1-3.3-.6-6.6-1-9.9-1.8-5.1-1.1-10.1-2.7-15-4.7-1.5-.6-3.1-1.3-4.6-2.1-.1,0-.2-.1-.4-.2-1.3-.7-2.7-1.4-4-2.1-.2-.1-.5-.3-.7-.4-1.2-.7-2.3-1.4-3.5-2.2-.3-.2-.6-.4-.9-.6-1.4-1-2.8-2-4.1-3-2.4-1.9-4.7-4-6.9-6.3-2.2-2.2-4.2-4.7-6-7.2-3.7-5.1-6.8-10.6-9.1-16.4-2.4-5.8-4.1-11.9-5.3-18.1-.3.9-.7,1.7-1,2.6-.5,1.3-.8,2.6-1.2,3.8-.2.6-.4,1.4-.5,2l-.3,1.1v.9c-.4,1.2-.6,2.5-.7,3.9-.7,5.3-.9,11-.8,16.7,0,2.8,0,5.7.2,8.5.1,2.8.3,5.7.5,8.5l1.9,24.6-11.8-21.7-12.4-23-2.4,16-1.8,12.4-7.5-10c-.9-1.1-1.5-2.1-2.3-3.1-.7-1-1.4-2.1-2.1-3.1-1.4-2.1-2.6-4.2-3.9-6.4-1.2-2.2-2.4-4.4-3.5-6.6-.6-1.1-1.1-2.3-1.6-3.4l-.7-1.6-.8-1.8c-.8-2-1.5-3.9-2.2-5.9-.1.3-.2.7-.3,1-.6,1.6-1.3,3.2-2,4.7-.8,1.5-1.6,3-2.5,4.5-.9,1.4-1.8,2.9-2.9,4.2-.3.5-.7.9-1.1,1.3h0c-.7.9-1.5,1.7-2.2,2.5l-1.8,1.8-1.9,1.6c-1.3,1-2.7,2.1-4.1,2.9-1.4.9-2.9,1.6-4.4,2.4-7.9,4-21.2,3.7-23.4,3.5.8,0,1.8-.1,2.6-.2,1.7-.2,3.4-.5,5.1-.8,2.4-.5,4.8-1.2,7.2-2.1,2.6-.9,5.2-2,7.5-3.4,2.4-1.5,4.5-3.4,6.6-5.4l1.5-1.7,1.4-1.8c.9-1.2,1.7-2.4,2.5-3.8.3-.5.5-1,.8-1.5h0c.4-.8.9-1.7,1.2-2.5.6-1.4,1.1-2.8,1.6-4.2s.9-2.9,1.2-4.3c.3-1.5.6-2.9.9-4.4.5-3,.7-6,.8-9v-5.6c0-.7-.1-1.5-.2-2.2,0-.3,0-.7-.1-1h.3l2.5-.4c3.1-.4,7.6-1.1,7.6-1.1l.7,3.4.8,3.4c.6,2.3,1.1,4.5,1.8,6.8,1.3,4.5,2.7,8.9,4.5,13l.6,1.5.7,1.6c.5,1.1,1,2,1.5,3.1,1,2.1,2.1,4.1,3.3,6.1,0,0,0,.1.1.2l2.7-17.9,2.3-15.6,7.5,13.9,9.4,17.4c0-4.4.3-8.9.9-13.5.2-1.5.5-3.1.8-4.7v-.6c.1,0,.2-.4.2-.4v-.3l.3-1.1c0-.4.2-.7.3-1.1s.2-.7.3-1.1c.4-1.6.9-3.1,1.4-4.5.5-1.5,1-2.9,1.6-4.3.6-1.4,1.2-2.8,1.8-4.2.7-1.4,1.3-2.8,2.1-4.1.7-1.4,1.5-2.7,2.3-4,.4-.7.8-1.3,1.2-2,.4-.7.9-1.3,1.4-2.1h0l11.8-16.1-2.4,19.7c-.3,2.4-.4,5.4-.3,8.2,0,2.8.2,5.6.5,8.5.6,5.6,1.8,11.2,3.6,16.6,3.6,10.7,9.7,20.7,18.2,28.4,1.2,1.1,2.4,2.1,3.7,3.1.3.2.6.5,1,.7,1,.8,2,1.5,3,2.2.3.2.6.4.9.6,1.1.7,2.3,1.5,3.5,2.1.2.1.4.2.6.4,5.5,3.1,11.4,5.6,17.6,7.4,6.2,1.9,10.6,2.9,17,3.9l-.4.2Z"/>
      </g>
    </g>
  </g>
</svg>