<?xml version="1.0" encoding="UTF-8"?>
<svg id="Layer_1" xmlns="http://www.w3.org/2000/svg" xmlns:xlink="http://www.w3.org/1999/xlink" viewBox="0 0 250 250">
  <defs>
    <style>
      .cls-1 {
        fill: none;
      }

      .cls-2 {
        fill: #fff;
      }

      .cls-3 {
        fill: #a4d0bb;
      }

      .cls-4 {
        clip-path: url(#clippath);
      }
    </style>
    <clipPath id="clippath">
      <rect class="cls-1" x="25.26" y="25.45" width="199.48" height="199.48" rx="99.74" ry="99.74"/>
    </clipPath>
  </defs>
  <rect class="cls-2" x="25.26" y="25.26" width="199.48" height="199.48" rx="99.74" ry="99.74"/>
  <g class="cls-4">
    <g id="SvgjsG1007">
      <path class="cls-3" d="M201.17,116.52c0-24-19.51-43.42-43.51-43.39-13.11.02-24.82,5.86-32.78,15.05-7.96-9.19-19.67-15.04-32.78-15.05-24-.03-43.51,19.39-43.51,43.39,0,10.95,1.97,21.64,5.23,31.9-1.62,8.48-5.05,16.96-11.95,22.12-15.12,11.29-26.17,11.01-26.17,11.01,0,0,23.05,13.08,50.28-5.42,22.51,40.19,58.9,68.48,58.9,68.48,0,0,19.69-15.34,39.06-39.42,36,13.66,70.36-2.32,70.36-2.32,0,0-32.15-5.42-55.26-18.73,12.45-19.83,22.12-43.12,22.12-67.63ZM203.75,201.57c4.06.6,14.19,1.94,14.19,1.94,0,0-11.07.95-22.07-1.01-3.3-.59-6.63-1.04-9.9-1.77-5.07-1.14-10.09-2.73-14.96-4.75-1.54-.64-3.07-1.33-4.57-2.06-.12-.06-.24-.12-.36-.18-1.35-.66-2.67-1.38-3.98-2.12-.25-.14-.49-.27-.74-.42-1.19-.69-2.35-1.43-3.5-2.19-.3-.2-.62-.39-.92-.6-1.4-.95-2.76-1.96-4.09-3.02-2.44-1.93-4.75-4.03-6.91-6.28-2.16-2.25-4.18-4.65-6.03-7.18-3.71-5.05-6.76-10.59-9.14-16.39-2.39-5.8-4.11-11.86-5.26-18.07-.34.87-.68,1.74-.98,2.62-.45,1.3-.83,2.56-1.19,3.79-.19.59-.36,1.35-.54,2.04l-.27,1.06-.07.26-.03.15-.09.47c-.27,1.24-.48,2.54-.65,3.88-.69,5.34-.85,11.01-.85,16.66.01,2.83.08,5.67.19,8.51.11,2.83.27,5.72.48,8.47l1.88,24.63-11.75-21.7-12.43-22.96-2.38,16.03-1.84,12.4-7.53-9.97c-.85-1.12-1.53-2.1-2.26-3.15-.71-1.04-1.41-2.07-2.08-3.12-1.35-2.1-2.65-4.23-3.89-6.38-1.23-2.17-2.42-4.36-3.54-6.59-.55-1.12-1.15-2.32-1.65-3.41l-.75-1.64-.78-1.8c-.82-1.95-1.55-3.9-2.23-5.85-.12.33-.21.66-.33.99-.6,1.59-1.29,3.15-2.01,4.7-.76,1.53-1.56,3.03-2.45,4.49-.91,1.45-1.83,2.88-2.9,4.22-.34.47-.72.91-1.09,1.35h0c-.72.86-1.47,1.7-2.24,2.52l-1.82,1.78-1.94,1.64c-1.35,1.02-2.68,2.06-4.14,2.89-1.41.91-2.93,1.61-4.41,2.36-7.86,4-21.18,3.71-23.35,3.49.81.08,1.78-.14,2.58-.23,1.72-.18,3.43-.46,5.12-.83,2.43-.53,4.83-1.25,7.17-2.11,2.57-.95,5.16-2.03,7.54-3.45,2.45-1.46,4.54-3.38,6.57-5.37l1.52-1.67,1.39-1.77c.88-1.21,1.75-2.43,2.47-3.75.29-.47.54-.97.8-1.46h0c.43-.83.85-1.67,1.24-2.53.61-1.37,1.14-2.77,1.63-4.18.45-1.43.88-2.86,1.22-4.32.34-1.46.64-2.93.87-4.41.47-2.96.72-5.97.78-8.96.02-1.5,0-2.99-.07-4.48-.02-.36-.04-.73-.07-1.1-.05-.74-.11-1.5-.19-2.17-.04-.34-.08-.66-.13-.96,0,0,.12-.02.31-.04l2.49-.35c3.08-.43,7.6-1.07,7.6-1.07l.72,3.37.8,3.41c.56,2.27,1.15,4.53,1.79,6.76,1.29,4.46,2.71,8.89,4.46,13.01l.65,1.51.75,1.64c.5,1.09.98,2.03,1.48,3.07,1.04,2.05,2.13,4.08,3.27,6.09.03.06.07.11.11.17l2.66-17.9,2.31-15.61,7.52,13.87,9.41,17.37c.08-4.43.31-8.9.9-13.48.2-1.54.45-3.1.79-4.7l.12-.59.09-.38.07-.26.27-1.06c.09-.36.17-.7.26-1.05s.18-.72.31-1.12c.44-1.56.91-3.07,1.41-4.51.5-1.46,1.04-2.91,1.62-4.34.57-1.43,1.19-2.84,1.84-4.24.65-1.4,1.33-2.78,2.06-4.14.73-1.36,1.48-2.71,2.29-4.04.41-.68.81-1.33,1.24-1.99.43-.66.89-1.33,1.42-2.08h0l11.81-16.06-2.36,19.72c-.29,2.42-.38,5.42-.34,8.18.04,2.82.23,5.65.55,8.46.65,5.63,1.82,11.21,3.62,16.59,3.56,10.75,9.66,20.7,18.16,28.4,1.18,1.08,2.41,2.11,3.67,3.11.32.25.65.48.97.73,1,.76,2.01,1.49,3.05,2.19.31.21.62.41.94.61,1.14.74,2.3,1.46,3.48,2.14.21.12.41.24.62.35,5.51,3.11,11.44,5.58,17.58,7.42,6.23,1.86,10.55,2.93,16.97,3.88Z"/>
    </g>
  </g>
</svg>