<svg xmlns:xlink="http://www.w3.org/1999/xlink" xmlns="http://www.w3.org/2000/svg" height="84.074577563983" width="370" style="width: 370px; height: 84.0746px; position: absolute; top: 50%; left: 50%; transform: translate(-50%, -50%) scale(1); z-index: 0; cursor: pointer; overflow: visible;"><defs id="SvgjsDefs1001"></defs><g id="SvgjsG1007" featurekey="S6ay6y-0" transform="matrix(1.1895979879065284,0,0,1.1895979879065284,1069.5222875365216,-603.5866800457717)" fill="#39413E"><path xmlns="http://www.w3.org/2000/svg" d="M-827.742,526.594c0-9.228-7.504-16.698-16.732-16.685c-5.04,0.007-9.545,2.255-12.604,5.789  c-3.059-3.534-7.563-5.782-12.604-5.789c-9.228-0.013-16.732,7.457-16.732,16.685c0,4.21,0.759,8.321,2.01,12.267  c-0.624,3.261-1.943,6.523-4.595,8.506c-5.813,4.343-10.063,4.233-10.063,4.233s8.862,5.029,19.336-2.083  c8.656,15.453,22.648,26.334,22.648,26.334s7.571-5.897,15.021-15.157c13.844,5.254,27.057-0.891,27.057-0.891  s-12.361-2.083-21.249-7.203C-831.461,544.973-827.742,536.018-827.742,526.594z M-826.75,559.297  c1.56,0.23,5.458,0.745,5.458,0.745s-4.255,0.365-8.487-0.387c-1.269-0.225-2.548-0.398-3.806-0.681  c-1.95-0.44-3.881-1.049-5.751-1.825c-0.593-0.246-1.179-0.512-1.758-0.794c-0.047-0.023-0.094-0.045-0.14-0.068  c-0.518-0.255-1.027-0.53-1.53-0.815c-0.095-0.054-0.19-0.105-0.284-0.16c-0.456-0.266-0.903-0.55-1.345-0.842  c-0.117-0.078-0.237-0.149-0.353-0.229c-0.537-0.367-1.063-0.752-1.574-1.161c-0.937-0.742-1.826-1.55-2.658-2.415  c-0.832-0.865-1.608-1.789-2.319-2.761c-1.427-1.942-2.599-4.071-3.515-6.301c-0.92-2.23-1.58-4.56-2.023-6.95  c-0.129,0.334-0.26,0.668-0.375,1.006c-0.174,0.499-0.321,0.983-0.457,1.458c-0.073,0.225-0.138,0.521-0.207,0.784l-0.102,0.406  l-0.025,0.101l-0.012,0.056l-0.035,0.182c-0.103,0.478-0.185,0.977-0.251,1.491c-0.267,2.055-0.327,4.235-0.325,6.405  c0.005,1.089,0.032,2.181,0.074,3.273c0.043,1.087,0.104,2.198,0.185,3.256l0.724,9.472l-4.519-8.343l-4.781-8.827l-0.914,6.165  l-0.707,4.769l-2.897-3.832c-0.327-0.432-0.589-0.807-0.87-1.211c-0.273-0.398-0.541-0.797-0.8-1.201  c-0.521-0.806-1.018-1.625-1.496-2.455c-0.474-0.833-0.93-1.677-1.362-2.535c-0.212-0.43-0.442-0.894-0.634-1.311l-0.288-0.629  l-0.299-0.692c-0.317-0.75-0.596-1.5-0.859-2.251c-0.045,0.126-0.08,0.255-0.128,0.381c-0.231,0.612-0.496,1.213-0.773,1.806  c-0.293,0.588-0.6,1.166-0.943,1.726c-0.348,0.556-0.705,1.107-1.114,1.621c-0.132,0.179-0.277,0.348-0.42,0.519l0,0  c-0.278,0.332-0.565,0.655-0.862,0.968l-0.7,0.684l-0.746,0.631c-0.518,0.392-1.029,0.794-1.592,1.112  c-0.543,0.35-1.128,0.619-1.697,0.909c-3.022,1.54-8.144,1.428-8.98,1.342c0.31,0.032,0.686-0.054,0.994-0.087  c0.661-0.07,1.318-0.178,1.967-0.32c0.936-0.205,1.857-0.479,2.756-0.811c0.987-0.365,1.986-0.779,2.899-1.325  c0.941-0.563,1.744-1.301,2.526-2.064l0.586-0.641l0.536-0.681c0.339-0.467,0.672-0.936,0.95-1.442  c0.111-0.182,0.209-0.372,0.308-0.562l0,0l0,0c0.167-0.32,0.327-0.644,0.477-0.971c0.235-0.525,0.437-1.064,0.625-1.606  c0.174-0.55,0.338-1.1,0.47-1.662c0.132-0.561,0.246-1.126,0.334-1.696c0.179-1.14,0.278-2.294,0.299-3.446  c0.008-0.576,0.002-1.151-0.026-1.722c-0.007-0.138-0.016-0.281-0.025-0.424c-0.019-0.286-0.044-0.575-0.074-0.836  c-0.015-0.131-0.032-0.255-0.05-0.368c0,0,0.048-0.007,0.119-0.017l0.958-0.135c1.185-0.166,2.924-0.411,2.924-0.411l0.277,1.294  l0.308,1.311c0.215,0.872,0.441,1.742,0.688,2.601c0.495,1.715,1.042,3.417,1.714,5.001l0.249,0.579l0.288,0.629  c0.194,0.421,0.376,0.782,0.571,1.18c0.398,0.789,0.819,1.569,1.258,2.34c0.013,0.023,0.028,0.044,0.041,0.067l1.021-6.885  l0.89-6.001l2.89,5.335l3.618,6.68c0.03-1.705,0.118-3.423,0.345-5.185c0.076-0.593,0.174-1.194,0.305-1.807l0.045-0.228  l0.034-0.148l0.026-0.101l0.102-0.406c0.036-0.138,0.067-0.27,0.101-0.405s0.071-0.275,0.118-0.429  c0.169-0.598,0.348-1.181,0.541-1.736c0.191-0.563,0.399-1.119,0.622-1.669c0.221-0.55,0.456-1.094,0.706-1.632  c0.25-0.537,0.513-1.068,0.792-1.592c0.282-0.523,0.569-1.043,0.881-1.554c0.159-0.262,0.312-0.51,0.477-0.764  c0.165-0.254,0.341-0.513,0.547-0.799l0,0l4.542-6.177l-0.907,7.583c-0.111,0.929-0.148,2.084-0.131,3.144  c0.017,1.084,0.088,2.172,0.21,3.254c0.249,2.164,0.701,4.311,1.391,6.378c1.368,4.133,3.715,7.961,6.984,10.92  c0.453,0.417,0.926,0.813,1.411,1.195c0.122,0.096,0.249,0.186,0.373,0.28c0.383,0.291,0.772,0.574,1.171,0.844  c0.119,0.08,0.239,0.158,0.36,0.236c0.437,0.286,0.883,0.56,1.337,0.822c0.079,0.045,0.157,0.091,0.237,0.136  c2.118,1.196,4.399,2.147,6.759,2.852C-830.88,558.519-829.22,558.932-826.75,559.297z" fill="#39413E"></path></g><g id="SvgjsG1008" featurekey="j5pGhi-0" transform="matrix(5.561591211165139,0,0,5.561591211165139,110.38678954376553,-24.05944476758445)" fill="#39413E"><path d="M1.7285 4.941000000000001 l1.4551 0 l0 6.0742 l7.373 0 l0 -6.0742 l1.4453 0 l0 14.482 l-1.4453 0 l0 -6.9824 l-7.373 0 l0 6.9824 l-1.4551 0 l0 -14.482 z M15.488234375 4.901999999999999 l1.4551 0 l0 13.086 l5.5664 0 l0 1.3965 l-7.0215 0 l0 -14.482 z M21.523441875 6.348000000000001 l0 -1.4063 l7.9492 0 l0 1.4063 l-3.2422 0 l0 13.076 l-1.4746 0 l0 -13.076 l-3.2324 0 z M31.51365625 4.941000000000001 l1.4551 0 l0 6.0742 l7.373 0 l0 -6.0742 l1.4453 0 l0 14.482 l-1.4453 0 l0 -6.9824 l-7.373 0 l0 6.9824 l-1.4551 0 l0 -14.482 z M45.537090625 4.3260000000000005 q0.46875 0 0.8056640625 0.33203125 t0.33691 0.80078 t-0.33691 0.80566 t-0.80566 0.33691 t-0.80078 -0.33691 t-0.33203 -0.80566 t0.33203 -0.80078 t0.80078 -0.33203 z M44.853490625 8.73 l1.377 0 l0 10.713 l-1.377 0 l0 -10.713 z" fill="#39413E"></path></g></svg>